inDegrees=no
num_controls=7
num_derivatives=13
num_iterations=121
num_multipliers=7
num_parameters=0
num_slacks=7
num_states=26
objective=0.545348
objective_accelerations=0.042058
objective_balance=0.003862
objective_effort=0.040917
objective_height=0.449069
objective_ligament=0.009442
solver_duration=1296.343410
status=Solve_Succeeded
success=true
DataType=double
version=3
OpenSimVersion=4.5
endheader
time	/jointset/ground_pelvis/pelvis_tilt/value	/jointset/ground_pelvis/pelvis_tx/value	/jointset/ground_pelvis/pelvis_ty/value	/jointset/hip_r/hip_flexion_r/value	/jointset/hip_r/hip_adduction_r/value	/jointset/hip_r/hip_rotation_r/value	/jointset/back/lumbar_extension/value	/jointset/patellofemoral_r/patellar_flexion_r/value	/jointset/knee_r/knee_flexion_r/value	/jointset/knee_r/knee_adduction_r/value	/jointset/knee_r/knee_rotation_r/value	/jointset/ankle_r/ankle_angle_r/value	/jointset/subtalar_r/subtalar_angle_r/value	/jointset/ground_pelvis/pelvis_tilt/speed	/jointset/ground_pelvis/pelvis_tx/speed	/jointset/ground_pelvis/pelvis_ty/speed	/jointset/hip_r/hip_flexion_r/speed	/jointset/hip_r/hip_adduction_r/speed	/jointset/hip_r/hip_rotation_r/speed	/jointset/back/lumbar_extension/speed	/jointset/patellofemoral_r/patellar_flexion_r/speed	/jointset/knee_r/knee_flexion_r/speed	/jointset/knee_r/knee_adduction_r/speed	/jointset/knee_r/knee_rotation_r/speed	/jointset/ankle_r/ankle_angle_r/speed	/jointset/subtalar_r/subtalar_angle_r/speed	/forceset/tau_hip_flexion_r	/forceset/tau_hip_adduction_r	/forceset/tau_hip_rotation_r	/forceset/tau_knee_flexion_r	/forceset/tau_ankle_angle_r	/forceset/tau_subtalar_angle_r	/forceset/tau_lumbar_extension	lambda_cid13_p0	lambda_cid14_p0	lambda_cid14_p1	lambda_cid14_p2	lambda_cid14_p3	lambda_cid14_p4	lambda_cid14_p5	/jointset/ground_pelvis/pelvis_tilt/accel	/jointset/ground_pelvis/pelvis_tx/accel	/jointset/ground_pelvis/pelvis_ty/accel	/jointset/hip_r/hip_flexion_r/accel	/jointset/hip_r/hip_adduction_r/accel	/jointset/hip_r/hip_rotation_r/accel	/jointset/back/lumbar_extension/accel	/jointset/patellofemoral_r/patellar_flexion_r/accel	/jointset/knee_r/knee_flexion_r/accel	/jointset/knee_r/knee_adduction_r/accel	/jointset/knee_r/knee_rotation_r/accel	/jointset/ankle_r/ankle_angle_r/accel	/jointset/subtalar_r/subtalar_angle_r/accel	gamma_cid13_p0	gamma_cid14_p0	gamma_cid14_p1	gamma_cid14_p2	gamma_cid14_p3	gamma_cid14_p4	gamma_cid14_p5
0.5	-0.2231409286979316	-0.005211886476108511	0.8393341754147635	0.9100664833284073	-0.2278846185175385	-0.1320217812502073	-0.3388910515683929	0.6966327145525973	0.6966327145526016	0.03600348006602927	0.1745161485445905	0.1779051687895737	0.03559074306665371	-0.6005492608686668	-0.2117643832378278	-0.4088069666986577	1.970871837557862	-0.000780267910452251	0.2666572487375067	-0.5888988217402947	1.6719786850124	1.671978685012428	-0.2794869822466348	-9.476765985853752e-05	0.3822673325228997	0.09651381511645549	-0.155832432263308	-0.02381224217591519	0.009392971056028916	-0.3119546804142262	0.1178369431903457	-0.008360948766455028	0.1896275916221638	-31.52199366085168	-4.38341834504803	-0.2062739568531853	-4.295864834501474	-2.422398693539409	-668.0318002935436	60.64500779803117	0.3117217616308605	0.540347004023676	-0.3367697992364969	-1.338571047922956	-0.0300676729490961	-0.4944451800371119	1.735119630549818	-1.238047906018294	-1.238047906018291	0.4721272017842321	-0.00297540821109613	-0.3443798241222026	-0.082584828925863	-1.075094997140137e-07	-1.268964252406554e-07	5.778200861396211e-07	-8.239975479418644e-07	1.749613889833665e-08	-2.119078468227887e-07	3.910914909787825e-07
0.51	-0.2291296640356218	-0.007302340657394508	0.8352302007058676	0.9297051344310822	-0.2278946654519607	-0.1293795663858647	-0.3446931074008552	0.7132881183913641	0.7132881183913685	0.0332341335799422	0.1745154770724117	0.1817097150799834	0.03655058387491678	-0.5971127949849961	-0.2063122718253898	-0.4118970224363485	1.956599742162042	-0.001237997611590997	0.2618198564028352	-0.5714592981576613	1.658871081841297	1.658871081841307	-0.2743224866851511	-6.08541951199282e-05	0.3785753939571419	0.09542289494801151	-0.163566382055253	-0.02231352179014572	0.01004464715585572	-0.3141614471006228	0.1150968024043317	-0.007888192817604925	0.1961214620678486	-30.56074738538807	-5.475099735374479	-0.2898763883194748	-4.170853790319295	-1.910470177747313	-672.222587262803	60.44918879520363	0.3723502425657784	0.5497700990562685	-0.2815185993962566	-1.510339078339737	-0.05499311628346735	-0.4734127349043187	1.756325711264088	-1.381746674344035	-1.381746674346729	0.5476532791100074	0.003244415575163386	-0.39159537099898	-0.1270423513299229	-8.340809719823679e-08	-4.409591235203913e-08	7.973179187546471e-07	-2.408059165502733e-07	-6.282424440424305e-08	-1.296441997424405e-07	3.758480431482279e-07
0.52	-0.2350814864663081	-0.009337848346715576	0.8310980464119225	0.9491933025212138	-0.2279095631829106	-0.1267847307398144	-0.3503191765996624	0.729805520168083	0.7298055201680861	0.03051824055862705	0.1745144786732302	0.1854753430850963	0.03749857613339017	-0.5931666794681049	-0.2007750848448423	-0.4144428837084731	1.940775235049091	-0.001750427216218071	0.2571814050792788	-0.5537014950092719	1.644378272602684	1.644378272602676	-0.2687962892924842	-0.0001601530600282035	0.374483675463528	0.094144105158517	-0.1713003318472001	-0.02081480140437731	0.01069632325567502	-0.3163682137870197	0.1123566616183172	-0.007415436868756261	0.2026153325135315	-29.59318079659619	-6.570401538216322	-0.3715066437067444	-4.049134235713412	-1.408957130314959	-676.4769436682662	60.30547856943047	0.4136516882749706	0.5573621176455804	-0.2279309061232856	-1.649053391349186	-0.04100765364676782	-0.4546569778140533	1.798775543700969	-1.515089119520285	-1.515089119520285	0.5444675680208699	-0.02961787414047101	-0.424335809693399	-0.120158753135972	-5.00546679033281e-08	7.889541677778887e-08	1.142238428247623e-06	6.122213701175522e-07	-1.868258467445315e-07	-7.347350412459192e-09	3.841918140105319e-07
0.53	-0.2409915313319685	-0.01131755637420264	0.8269431622910698	0.968515890388589	-0.2279291898564294	-0.1242381546779203	-0.3557659969576941	0.7461713382590965	0.7461713382590974	0.027856374447052	0.1745134655495241	0.1891984401285685	0.03843380169348613	-0.5887627243582519	-0.1951500911835281	-0.4164393453343571	1.923486407232894	-0.00218546170381278	0.2521686858540064	-0.535620843953746	1.628565622482017	1.628565622481999	-0.263519228721703	-6.350590150037153e-05	0.3700839458490911	0.09287121879719848	-0.1786397984046983	-0.01964394731655291	0.01128501520270851	-0.3192030374171999	0.1105933483554466	-0.007011198393000504	0.2088101631512334	-28.61988662754342	-7.35589034827258	-0.4309392626805925	-3.928336905524942	-1.168430877197693	-680.7904614937357	60.25354987581363	0.4657129346243379	0.5674820191728046	-0.1713031437825741	-1.807173413088496	-0.04605271890038043	-0.5193351772997145	1.818969782943983	-1.647304918906826	-1.647304918908319	0.5282305730335729	0.02634430347259611	-0.4555986435196936	-0.1349886663046335	-2.733446320668568e-08	1.585543039349831e-07	1.355643023636481e-06	1.159640964294542e-06	-2.665889096929224e-07	7.083495431976672e-08	4.015587804584911e-07
0.54	-0.2468551475440723	-0.01324053165931682	0.8227711536833658	0.9876579147905366	-0.2279534271493396	-0.1217406569647637	-0.3610307588258773	0.7623724394567901	0.7623724394567881	0.02524905999547165	0.1745128265559266	0.1928759784546562	0.03935547137223395	-0.5838809487570477	-0.1894285363702627	-0.4178677810787034	1.90466254196336	-0.002672551094790263	0.2473657353320996	-0.5172897970395995	1.611434893938674	1.611434893938645	-0.2578859572938489	-8.53270380450294e-05	0.3653719319866196	0.09143292888888618	-0.1859792649621979	-0.01847309322872941	0.01187370714974268	-0.3220378610473804	0.1088300350925756	-0.006606959917246209	0.2150049937889343	-27.64175548748032	-8.147748081573221	-0.4914157732836769	-3.807453339882455	-0.9195974809222343	-685.2043254239384	60.201214659049	0.5092157865451814	0.5766743480358367	-0.1143257298157273	-1.95606088201633	-0.05141863432332879	-0.4127032371409348	1.848854715425052	-1.778704804055615	-1.778704804055673	0.6157097394354312	-0.05331153315496776	-0.4867926593003076	-0.1532394625347261	-1.637867721450819e-08	1.902709148671352e-07	1.423540650229291e-06	1.368941409332731e-06	-2.974072056545324e-07	1.00209677794901e-07	4.289088569161115e-07
0.55	-0.2526676675875085	-0.01510590983427401	0.8185876996684532	1.006604335394336	-0.2279825525087108	-0.1192912281199848	-0.3661110423828326	0.7783957831331896	0.7783957831331895	0.02269864769661981	0.1745119617372221	0.196504897653536	0.04026226034473417	-0.5785488184958271	-0.1836400794826158	-0.4187273049945203	1.884383474918836	-0.003153568613707921	0.2425170106109885	-0.4987394413686378	1.593022281348033	1.593022281348004	-0.2521812047928612	-8.752614504000399e-05	0.3603599492024917	0.08990694194167317	-0.1932370930326539	-0.01717934583266737	0.01234329544460886	-0.3246252477386189	0.1066918568932959	-0.006180196158041606	0.2210587707081448	-26.6599685441172	-9.057187330869045	-0.5628041069006555	-3.684709438129887	-0.5201408176730105	-689.5271923859901	60.1042600716867	0.5563635850212051	0.5809213865134776	-0.05738493961658672	-2.099524129002779	-0.04624976231350255	-0.5213603515371853	1.862246940321367	-1.904271404997213	-1.904271404997221	0.5504335828462334	0.02662028117778673	-0.5162381355897252	-0.1545625543550186	-9.798978411974829e-09	2.040810215962617e-07	1.432986611496431e-06	1.452280703492059e-06	-3.093684755181724e-07	1.134337666771329e-07	4.487393478100447e-07
0.5600000000000001	-0.2584246359405092	-0.01691320543487781	0.8143985265709522	1.025340826425024	-0.2280164493335975	-0.1168903671748062	-0.3710049981936001	0.7942286542999974	0.794228654299998	0.02020579803826236	0.1745111338035761	0.2000821296150504	0.0411533325990542	-0.5727706106701815	-0.1778120214995823	-0.4190115975964111	1.862676627341019	-0.003626844198127078	0.2376521554122385	-0.480024247802093	1.573340392020235	1.573340392020207	-0.2463734291952417	-7.795002605288833e-05	0.3550344845135362	0.08828958525284294	-0.2004949211031095	-0.01588559843660466	0.01281288373946595	-0.3272126344298574	0.1045536786940162	-0.005753432398836058	0.2271125476273556	-25.67599539359732	-9.974183193939105	-0.6364805813670807	-3.560496868235381	-0.1057769146925846	-693.9670035592276	59.99479384272415	0.598431299430178	0.5845945671131799	0.0007205329695024838	-2.241616988674872	-0.0498702474236354	-0.4159293326687292	1.881822294541677	-2.032560151486956	-2.032560151486929	0.6363143587617857	-0.05095648795854906	-0.5494890402658015	-0.1715134108581683	-8.470584237014253e-09	1.964033232817582e-07	1.372290574372769e-06	1.384466616596759e-06	-2.98701314064249e-07	1.072770940478826e-07	4.595463360275534e-07
0.5700000000000001	-0.2641216524720362	-0.01866205055409119	0.8102093911369992	1.043853230479465	-0.2280550922174265	-0.1145379928824585	-0.3757110329254783	0.8098584929007543	0.8098584929007545	0.01777168183070112	0.1745102883104667	0.203604610403144	0.04202772214705097	-0.5665608956548686	-0.1719525611075967	-0.4187183526143123	1.839572379440825	-0.004101382972685555	0.2328181483408581	-0.4611646672591981	1.552426662457912	1.552426662457891	-0.2404391588933004	-8.91916860417882e-05	0.349417788727307	0.08657391673397842	-0.2075450244919595	-0.01462778990256888	0.01316982497695191	-0.3298358073276876	0.1025994621933848	-0.005332447940089686	0.2329654548560343	-24.69154780297535	-10.82575920696619	-0.7019890713003706	-3.436700957005501	0.2570860198488263	-698.3026471730572	59.89415556069778	0.6430261506571048	0.5872294271260138	0.05821772672184927	-2.379579919355183	-0.04587974845713453	-0.5177789541164556	1.890730631284552	-2.150877665753135	-2.150877665752052	0.5738314214911258	0.02434174062223024	-0.5743812901750941	-0.1733859065838004	-7.266652033399996e-09	1.881619028969346e-07	1.309462653716937e-06	1.314009670877343e-06	-2.871428787294525e-07	1.00802226822922e-07	4.669473931986713e-07
